<?xml version="1.0" encoding="utf-8"?>
<!-- Generator: Adobe Illustrator 23.0.3, SVG Export Plug-In . SVG Version: 6.00 Build 0)  -->
<svg version="1.1" id="Calque_1" xmlns="http://www.w3.org/2000/svg" xmlns:xlink="http://www.w3.org/1999/xlink" x="0px" y="0px"
	 viewBox="0 0 312.1 71.8" style="enable-background:new 0 0 312.1 71.8;" xml:space="preserve">
<style type="text/css">
	.st0{fill:#B0AAA9;}
	.st1{fill:none;stroke:#009540;stroke-width:4;stroke-miterlimit:10;}
	.st2{fill:none;stroke:#BD1823;stroke-width:4;stroke-miterlimit:10;}
	.st3{fill:none;stroke:#1E72B8;stroke-width:4;stroke-miterlimit:10;}
	.st4{fill:none;}
</style>
<g>
	<path class="st0" d="M89.1,55.1c-8.6,0.1-12.5-8.9-12.5-16.4c0-7.6,4.3-16.6,13-16.5c3.3,0,6.4,0.9,9.4,2.3V6l5-1.7l0.1,45.3
		C99.9,53,94.9,55.1,89.1,55.1z M99.1,28.6c-2.7-1.7-5-2.8-8.1-2.9c-6.6,0-8.6,8.1-8.6,13.4c0,5,1.9,12.9,8.4,12.9
		c3.2,0,6.5-1.7,8.4-3V28.6z"/>
	<path class="st0" d="M118.6,44.3c0,4.8,3.5,7.3,8.1,7.3c2.8-0.1,6-1.7,7.7-2.8V23h5.3v28.6c0,3.7-0.2,9.2-1.7,12.1
		c-2.7,5-10.2,7.1-15.5,7.2l-0.9-3.3c4-0.6,9.8-1.2,12-5.3c1.1-2,1.2-6,1.2-8.3c0-0.8,0.1-0.6,0-1.4c-1.6,0.7-5.1,2.4-11.3,2.4
		c-4.8,0-10.2-3.4-10.2-9.2V24l5.3-1.8V44.3L118.6,44.3z"/>
	<path class="st0" d="M167.6,54.6V33.1c0-4.8-3.2-7.5-7.8-7.4c-2.8,0.1-5.5,1.3-7.1,2.4v26.4h-5.3V27.5c2.7-1.9,5-3.5,8.4-4.3
		c2.6-0.7,6.1-1.4,9.9-0.6c3.8,0.9,7.2,3.6,7.2,7.8v24.1H167.6z"/>
	<path class="st0" d="M178.8,26.4V23h3.6v-8.8l5.3-1.9V23h5.9v3.4h-5.9v20.5c0,4.2,2.2,5.2,5.9,5.3V55c-7,0.6-11.2-2.5-11.2-7.9
		V26.4H178.8z"/>
	<path class="st0" d="M214.1,26.2c-3.5,0-5.8,1.3-7.7,2.9v25.5h-5.3V28.3c1.9-2.2,4.5-3.9,7.5-4.9c3.2-1.2,6.2-1.9,10.6-1.1
		c-0.6,1.3-1.5,3-2.1,4.2C216.1,26.4,214.9,26.2,214.1,26.2L214.1,26.2z"/>
	<path class="st0" d="M233.3,55.1c-5.7-0.1-10.4-4.7-10.2-10.4c0.1-6.1,4.8-9.9,10.9-9.8c3.5,0,5.7,0,8.6,0v-3.1c0-3.6-3.3-6-6.8-6
		c-3.2,0-5.5,0.8-8.3,2.2l-1.3-3c3.7-2,6.6-2.7,10.9-2.7c5.3,0,10.4,3.5,10.4,9.3v18.2C244.5,52.8,239.6,55.2,233.3,55.1z
		 M242.4,38.2c-1.7,0-4.3,0-6.9,0.1c-4,0-7.1,2.3-7.1,6.3c0,3.6,3,7.1,7.2,7.1c3,0.1,5.8-1.6,6.8-2.6V38.2z"/>
	<path class="st0" d="M254.4,39.1c0-5.9,2.4-11.7,6.8-14.8c4.4-3,11.1-2.8,16.1,0.3l-1.5,2.8c-2.2-1-5.1-1.9-7.6-1.7
		c-5.7,0.3-8.5,7.4-8.5,13.4c0,5.7,3,12.5,9,12.5c3.4,0.1,5.8-1.2,8.7-2.5l1.4,2.7c-3.1,2-7,3.3-11.6,3.3
		C259.1,55.1,254.4,47.1,254.4,39.1z"/>
	<path class="st0" d="M303.9,54.6l-11-16.9l-3,2.7v14.3h-5.3V6.2l5.3-1.8v31.1l14.8-13.4l2.6,2.4L296.8,34l13.2,20.6H303.9z"/>
</g>
<path class="st1" d="M16.5,1.5c-14.9,19-16,27.8-13.2,32.1c4.1,6.7,16.8,3.1,29.3,13.2c5.3,4.3,8.5,9.4,10.4,13.2"/>
<path class="st2" d="M35.4,6.2C22.9,19,21.6,25.1,23.2,28.4c2.3,4.8,10.6,2.9,18.4,9c6.6,5.1,9.2,13,10.4,19.4"/>
<path class="st3" d="M61.7,16.6c-1.7,1.4-4.5,4-6.1,8c-2.4,5.9-1.1,11.3,0,15.6c1.6,6.3,4.6,11.1,7.1,14.2"/>
<rect y="0" class="st4" width="312.1" height="71.8"/>
</svg>
